<?xml version="1.0" standalone="no"?>
<!DOCTYPE svg PUBLIC "-//W3C//DTD SVG 20010904//EN"
 "http://www.w3.org/TR/2001/REC-SVG-20010904/DTD/svg10.dtd">
<svg version="1.0" xmlns="http://www.w3.org/2000/svg"
 width="225.000000pt" height="225.000000pt" viewBox="0 0 225.000000 225.000000"
 preserveAspectRatio="xMidYMid meet">
<metadata>
Created by potrace 1.14, written by Peter Selinger 2001-2017
</metadata>
<g transform="translate(0.000000,225.000000) scale(0.100000,-0.100000)"
fill="#000000" stroke="none">
<path d="M975 2239 c-153 -19 -327 -84 -464 -173 -86 -55 -225 -186 -292 -276
-158 -210 -240 -510 -210 -779 28 -260 126 -472 303 -657 106 -110 189 -172
313 -234 318 -157 682 -157 1000 0 55 27 129 72 165 99 90 67 221 206 276 292
217 335 241 756 64 1114 -62 124 -124 207 -234 313 -247 237 -574 344 -921
301z m326 -74 c340 -63 618 -270 764 -570 64 -130 90 -220 106 -362 22 -195
-14 -390 -107 -578 -37 -75 -52 -95 -91 -120 -25 -16 -66 -43 -90 -59 -48 -32
-91 -36 -210 -21 -77 10 -140 -5 -207 -47 -70 -45 -133 -49 -231 -13 -89 33
-159 31 -240 -6 -79 -35 -129 -31 -212 19 -76 46 -142 62 -208 51 -108 -19
-126 -21 -160 -15 -24 5 -56 25 -94 61 -32 29 -67 56 -78 59 -13 4 -37 42 -66
104 -178 370 -127 803 131 1122 116 144 296 270 470 331 157 56 365 73 523 44z
m-559 -1817 c93 -63 167 -73 263 -33 98 41 122 41 227 5 87 -31 97 -32 153
-21 32 6 81 24 108 41 73 45 125 55 207 40 40 -8 90 -10 122 -6 l53 7 -40 -36
c-218 -193 -479 -286 -764 -272 -237 12 -473 108 -646 263 l-40 36 45 -6 c28
-4 62 -1 90 8 25 9 73 14 107 13 52 -2 70 -8 115 -39z"/>
<path d="M1080 1964 c0 -34 1 -35 33 -32 28 3 32 7 35 36 3 31 2 32 -32 32
-35 0 -36 -1 -36 -36z"/>
<path d="M640 1935 c0 -35 1 -36 33 -33 28 3 32 6 32 33 0 27 -4 30 -32 33
-32 3 -33 2 -33 -33z"/>
<path d="M1740 1744 c0 -34 1 -35 33 -32 28 3 32 7 35 36 3 31 2 32 -32 32
-35 0 -36 -1 -36 -36z"/>
<path d="M1360 1730 c0 -28 3 -30 35 -30 32 0 35 2 35 30 0 28 -3 30 -35 30
-32 0 -35 -2 -35 -30z"/>
<path d="M790 1635 c0 -33 2 -35 35 -35 33 0 35 2 35 35 0 33 -2 35 -35 35
-33 0 -35 -2 -35 -35z"/>
<path d="M1010 1566 c-199 -56 -340 -238 -340 -441 0 -248 207 -455 455 -455
248 0 455 207 455 455 0 206 -142 387 -345 441 -61 17 -165 16 -225 0z m231
-76 c203 -64 314 -281 248 -482 -39 -121 -126 -208 -247 -247 -201 -67 -418
45 -482 248 -94 297 184 575 481 481z"/>
<path d="M357 1493 c-7 -36 -2 -43 34 -43 27 0 29 3 29 35 0 32 -3 35 -29 35
-23 0 -30 -5 -34 -27z"/>
<path d="M1640 1315 c0 -33 2 -35 35 -35 33 0 35 2 35 35 0 33 -2 35 -35 35
-33 0 -35 -2 -35 -35z"/>
<path d="M1990 1285 c0 -33 2 -35 35 -35 33 0 35 2 35 35 0 33 -2 35 -35 35
-33 0 -35 -2 -35 -35z"/>
<path d="M510 1125 c0 -33 2 -35 35 -35 33 0 35 2 35 35 0 33 -2 35 -35 35
-33 0 -35 -2 -35 -35z"/>
<path d="M1647 923 c-4 -3 -7 -19 -7 -35 0 -25 3 -28 35 -28 33 0 35 2 35 35
0 32 -3 35 -28 35 -16 0 -32 -3 -35 -7z"/>
<path d="M210 854 c0 -34 1 -35 33 -32 28 3 32 7 35 36 3 31 2 32 -32 32 -35
0 -36 -1 -36 -36z"/>
<path d="M640 705 c0 -33 2 -35 35 -35 33 0 35 2 35 35 0 33 -2 35 -35 35 -33
0 -35 -2 -35 -35z"/>
<path d="M1860 645 c0 -33 2 -35 35 -35 33 0 35 2 35 35 0 33 -2 35 -35 35
-33 0 -35 -2 -35 -35z"/>
<path d="M1360 570 c0 -28 3 -30 35 -30 32 0 35 2 35 30 0 28 -3 30 -35 30
-32 0 -35 -2 -35 -30z"/>
</g>
</svg>
